<mxfile host="app.diagrams.net" modified="2022-10-07T20:53:31.513Z" agent="5.0 (Windows NT 10.0; Win64; x64) AppleWebKit/537.36 (KHTML, like Gecko) Chrome/105.0.0.0 Safari/537.36" etag="cYYnr8agta6w9za5yQaU" version="20.4.0" type="github">
  <diagram id="z6MFjWCdyYGmn0xaaERZ" name="Page-1">
    <mxGraphModel dx="1422" dy="762" grid="1" gridSize="10" guides="1" tooltips="1" connect="1" arrows="1" fold="1" page="1" pageScale="1" pageWidth="827" pageHeight="1169" math="0" shadow="0">
      <root>
        <mxCell id="0" />
        <mxCell id="1" parent="0" />
        <mxCell id="7uXlqe8hRex_CF46cLV2-1" value="3 Les cookies sont stockés sur le navigateur" style="aspect=fixed;html=1;points=[];align=center;image;fontSize=12;image=img/lib/azure2/preview/Static_Apps.svg;" vertex="1" parent="1">
          <mxGeometry x="60" y="50" width="212.5" height="170" as="geometry" />
        </mxCell>
        <mxCell id="7uXlqe8hRex_CF46cLV2-2" value="" style="aspect=fixed;html=1;points=[];align=center;image;fontSize=12;image=img/lib/azure2/app_services/App_Service_Plans.svg;" vertex="1" parent="1">
          <mxGeometry x="510" y="50" width="170" height="170" as="geometry" />
        </mxCell>
        <mxCell id="7uXlqe8hRex_CF46cLV2-3" value="1 Envoi d&#39;une requête http" style="endArrow=open;endFill=1;endSize=12;html=1;rounded=0;" edge="1" parent="1">
          <mxGeometry width="160" relative="1" as="geometry">
            <mxPoint x="270" y="90" as="sourcePoint" />
            <mxPoint x="510" y="90" as="targetPoint" />
          </mxGeometry>
        </mxCell>
        <mxCell id="7uXlqe8hRex_CF46cLV2-4" value="2 réponse avec cookies" style="endArrow=open;endFill=1;endSize=12;html=1;rounded=0;entryX=0.988;entryY=0.647;entryDx=0;entryDy=0;entryPerimeter=0;exitX=0;exitY=0.647;exitDx=0;exitDy=0;exitPerimeter=0;" edge="1" parent="1" source="7uXlqe8hRex_CF46cLV2-2" target="7uXlqe8hRex_CF46cLV2-1">
          <mxGeometry width="160" relative="1" as="geometry">
            <mxPoint x="300" y="271.07" as="sourcePoint" />
            <mxPoint x="537.96" y="269.99999999999994" as="targetPoint" />
          </mxGeometry>
        </mxCell>
        <mxCell id="7uXlqe8hRex_CF46cLV2-5" value="" style="ellipse;whiteSpace=wrap;html=1;strokeWidth=2;fillWeight=2;hachureGap=8;fillColor=#990000;fillStyle=dots;sketch=1;" vertex="1" parent="1">
          <mxGeometry x="440" y="170" width="60" height="40" as="geometry" />
        </mxCell>
        <mxCell id="7uXlqe8hRex_CF46cLV2-6" value="" style="ellipse;whiteSpace=wrap;html=1;strokeWidth=2;fillWeight=2;hachureGap=8;fillColor=#990000;fillStyle=dots;sketch=1;" vertex="1" parent="1">
          <mxGeometry x="60" y="250" width="60" height="40" as="geometry" />
        </mxCell>
      </root>
    </mxGraphModel>
  </diagram>
</mxfile>
